<svg width="256" height="256" viewBox="0 0 256 256" xmlns="http://www.w3.org/2000/svg">
  <rect width="256" height="256" fill="#08080e"/>
  <defs>
    <radialGradient id="glow1" cx="35%" cy="35%" r="55%">
      <stop offset="0%" stop-color="#FF2EAA" stop-opacity="0.4"/>
      <stop offset="100%" stop-color="#08080e" stop-opacity="0"/>
    </radialGradient>
    <radialGradient id="glow2" cx="70%" cy="65%" r="50%">
      <stop offset="0%" stop-color="#8B2FC9" stop-opacity="0.35"/>
      <stop offset="100%" stop-color="#08080e" stop-opacity="0"/>
    </radialGradient>
    <linearGradient id="mGrad" x1="0%" y1="0%" x2="100%" y2="100%">
      <stop offset="0%" stop-color="#FF2EAA"/>
      <stop offset="50%" stop-color="#c020e0"/>
      <stop offset="100%" stop-color="#8B2FC9"/>
    </linearGradient>
    <linearGradient id="strokeGrad" x1="0%" y1="0%" x2="100%" y2="100%">
      <stop offset="0%" stop-color="#FF2EAA"/>
      <stop offset="100%" stop-color="#8B2FC9"/>
    </linearGradient>
  </defs>
  <rect width="256" height="256" fill="url(#glow1)"/>
  <rect width="256" height="256" fill="url(#glow2)"/>
  <rect x="18" y="18" width="220" height="220" rx="52" fill="none" stroke="url(#strokeGrad)" stroke-width="3" opacity="0.5"/>
  <text x="128" y="168" font-family="Impact,Arial Black,sans-serif" font-size="148" font-weight="900" fill="url(#mGrad)" text-anchor="middle" letter-spacing="-4">M</text>
  <text x="128" y="168" font-family="Impact,Arial Black,sans-serif" font-size="148" font-weight="900" fill="none" stroke="#FF2EAA" stroke-width="1.5" stroke-opacity="0.4" text-anchor="middle" letter-spacing="-4">M</text>
  <circle cx="192" cy="64" r="22" fill="#08080e"/>
  <circle cx="192" cy="64" r="22" fill="none" stroke="url(#strokeGrad)" stroke-width="2"/>
  <path d="M186 56 Q192 50 198 56 Q204 62 198 68 L192 76 L186 68 Q180 62 186 56Z" fill="url(#mGrad)" opacity="0.9"/>
  <circle cx="192" cy="56" r="5" fill="#69C9D0"/>
  <circle cx="192" cy="74" r="4" fill="#EE1D52"/>
  <circle cx="44" cy="48" r="2.5" fill="#FF2EAA" opacity="0.8"/>
  <circle cx="210" cy="200" r="2" fill="#FF2EAA" opacity="0.6"/>
  <circle cx="36" cy="195" r="1.5" fill="#8B2FC9" opacity="0.7"/>
  <path d="M48 42 L48 54 M42 48 L54 48 M45 45 L51 51 M51 45 L45 51" stroke="#FF2EAA" stroke-width="1.8" stroke-linecap="round" stroke-opacity="0.6"/>
  <path d="M205 196 L205 204 M201 200 L209 200" stroke="#8B2FC9" stroke-width="1.5" stroke-linecap="round" stroke-opacity="0.5"/>
</svg>
